{
  "title": "Le.Tout.Nouveau.Testament.2015.1080p.BRRip.x264.AC3.HORiZON-ArtS",
  "uid": 13475353,
  "size": 1798960749,
  "categoryP": "video",
  "categoryS": "movies",
  "magnet": "?xt=urn:btih:64c39e3766bb868fc74fc5056806700dbe1dd2cb&amp;dn=Le.Tout.Nouveau.Testament.2015.1080p.BRRip.x264.AC3.HORiZON-ArtS&amp;tr=udp%3A%2F%2Ftracker.leechers-paradise.org%3A6969&amp;tr=udp%3A%2F%2Fzer0day.ch%3A1337&amp;tr=udp%3A%2F%2Fopen.demonii.com%3A1337&amp;tr=udp%3A%2F%2Ftracker.coppersurfer.tk%3A6969&amp;tr=udp%3A%2F%2Fexodus.desync.com%3A6969",
  "seeders": 49,
  "leechers": 4,
  "uploader": "noriegaRJ",
  "files": 1,
  "time": 1455003432,
  "description": "Title: Le Tout Nouveau Testament aka The Brand New Testament\r\n\r\nRelease: Le.Tout.Nouveau.Testament.2015.1080p.BRRip.x264.AC3.HORiZON-ArtSubs\r\n\r\n\r\nIMDB Link:                                                           \nhttp://www.imdb.com/title/tt3792960/\r\n\r\n\r\nPlot: God lives in human form as a cynical writer with his young opinionated daughter in present-day Brussels, Belgium. She concludes that her dad is doing a terrible job and decides to rewrite the world, which leaves God angry, powerless and adamant to get his power back.\r\n\r\n\r\nDUTCH SUBTITLE IN MKV CONTAINER.\r\n\r\n\r\nGeneral\r\nComplete name                            : Le.Tout.Nouveau.Testament.2015.1080p.BRRip.x264.AC3.HORiZON-ArtSubs\r\nFormat                                   : Matroska\r\nFormat version                           : Version 2\r\nFile size                                : 1.68 GiB\r\nDuration                                 : 1h 54mn\r\nOverall bit rate                         : 2 088 Kbps\r\nWriting application                      : HandBrake 0.9.5\r\nWriting library                          : libmkv 0.6.4.1\r\n\r\nVideo\r\nID                                       : 1\r\nFormat                                   : AVC\r\nFormat/Info                              : Advanced Video Codec\r\nFormat profile                           :   \r\nFormat settings, CABAC                   : Yes\r\nFormat settings, ReFrames                : 4 frames\r\nCodec ID                                 : V_MPEG4/ISO/AVC\r\nDuration                                 : 1h 54mn\r\nBit rate                                 : 1 425 Kbps\r\nWidth                                    : 1 920 pixels\r\nHeight                                   : 800 pixels\r\nDisplay aspect ratio                     : 2.40:1\r\nFrame rate mode                          : Constant\r\nFrame rate                               : 24.000 fps\r\nColor space                              : YUV\r\nChroma subsampling                       : 4:2:0\r\nBit depth                                : 8 bits\r\nScan type                                : Progressive\r\nBits/(Pixel*Frame)                       : 0.039\r\nStream size                              : 1.13 GiB (67%)\r\nWriting library                          : x264 core 112\r\nLanguage                                 : English\r\nDefault                                  : Yes\r\nForced                                   : No\r\nColor primaries                          : BT.709\r\nTransfer characteristics                 : BT.709\r\nMatrix coefficients                      : BT.709\r\n\r\nAudio\r\nID                                       : 2\r\nFormat                                   : AC-3\r\nFormat/Info                              : Audio Coding 3\r\nMode extension                           : CM (complete main)\r\nFormat settings, Endianness              : Big\r\nCodec ID                                 : A_AC3\r\nDuration                                 : 1h 54mn\r\nBit rate mode                            : Constant\r\nBit rate                                 : 640 Kbps\r\nChannel count                            : 6 channels\r\nChannel positions                        : Front: L C R, Side: L R, LFE\r\nSampling rate                            : 48.0 KHz\r\nBit depth                                : 16 bits\r\nCompression mode                         : Lossy\r\nStream size                              : 526 MiB (31%)\r\nLanguage                                 : French\r\nDefault                                  : Yes\r\nForced                                   : No\r\n\r\nText\r\nID                                       : 3\r\nFormat                                   : UTF-8\r\nCodec ID                                 : S_TEXT/UTF8\r\nCodec ID/Info                            : UTF-8 Plain Text\r\nLanguage                                 : Dutch\r\nDefault                                  : No\r\nForced                                   : No\r\n\r\n\r\n\r\nThanks to those helping me seed. Leechers remember, the community depends on you. If nobody shares, the freebies go away. Remember, the only reason you can download this free movie is because others are generous enough to keep sharing it with you. If nobody shares, everybody loses, so even if its for an extra hour or two after you get it, remember, others want to see it too, and they can't without you.\r\n\r\n\r\nSEE MY OTHERS UPLOADS:                                                                                   \nhttp://thepiratebay.se/user/noriegaRJ\r\n\r\nAND SEE THIS ANOTHERS UPLOADS FROM &quot;HORiZON-ArtSubs&quot;:                                   \nhttp://thepiratebay.se/user/artsubs                                   \nhttp://thepiratebay.se/user/lletaif",
  "parsed": {
    "xt": "urn:btih:64c39e3766bb868fc74fc5056806700dbe1dd2cb",
    "dn": "Le.Tout.Nouveau.Testament.2015.1080p.BRRip.x264.AC3.HORiZON-ArtS",
    "tr": [
      "udp://exodus.desync.com:6969",
      "udp://open.demonii.com:1337",
      "udp://tracker.coppersurfer.tk:6969",
      "udp://tracker.leechers-paradise.org:6969",
      "udp://zer0day.ch:1337"
    ],
    "infoHash": "64c39e3766bb868fc74fc5056806700dbe1dd2cb",
    "infoHashBuffer": {
      "type": "Buffer",
      "data": [
        100,
        195,
        158,
        55,
        102,
        187,
        134,
        143,
        199,
        79,
        197,
        5,
        104,
        6,
        112,
        13,
        190,
        29,
        210,
        203
      ]
    },
    "name": "Le.Tout.Nouveau.Testament.2015.1080p.BRRip.x264.AC3.HORiZON-ArtS",
    "announce": [
      "udp://exodus.desync.com:6969",
      "udp://open.demonii.com:1337",
      "udp://tracker.coppersurfer.tk:6969",
      "udp://tracker.leechers-paradise.org:6969",
      "udp://zer0day.ch:1337"
    ],
    "urlList": []
  },
  "previous": 96,
  "peers": 142,
  "last_updated": "2016-12-27T02:16:52.244Z"
}